#!OML:ASF E:\emotionWalksFemale\Project 1\Capture day 1\Session 1\Female1.ASF
:FULLY-SPECIFIED
:DEGREES
144
root 9.25381 13.6346 21.7562 200.682 14.1365 -178.626
lowerback 20.5731 1.82374 -0.171397
upperback -1.59178 2.26372 -1.43879
thorax -13.3539 1.01236 -2.24432
lowerneck -8.91421 -5.28332 -7.31694
upperneck -16.7858 -3.44326 12.5366
head -3.07839 -0.845929 5.04994
rclavicle 2.42517e-014 3.37934e-015
rhumerus -39.8982 18.6603 -74.2716
rradius 46.9946
rwrist 0.716656
rhand -6.13531 -54.198
rfingers 7.12502
rthumb 19.7023 -83.2195
lclavicle 2.42517e-014 3.37934e-015
lhumerus 0.354554 13.3025 79.9159
lradius 25.9411
lwrist -25.1363
lhand -12.8066 -30.7237
lfingers 7.12502
lthumb 13.2797 -1.16675
rfemur -57.4312 -5.01748 31.0163
rtibia 72.3787
rfoot -29.2998 -22.5469
rtoes 7.04823
lfemur -55.0775 11.9765 -21.6995
ltibia 72.335
lfoot -34.5752 12.3793
ltoes -54.3887
145
root 9.23111 13.6155 21.7192 200.506 15.2068 -178.493
lowerback 20.4341 1.35195 -0.109279
upperback -1.63839 1.65524 -1.38979
thorax -13.3458 0.729412 -2.02923
lowerneck -9.02086 -5.21936 -7.56113
upperneck -16.7904 -3.28031 13.1334
head -3.05059 -0.773645 5.28248
rclavicle -2.78299e-015 -1.98785e-014
rhumerus -41.9763 19.1486 -75.4826
rradius 47.8206
rwrist 0.243675
rhand -6.10098 -53.7597
rfingers 7.12502
rthumb 19.7353 -82.7779
lclavicle -2.78299e-015 -1.98785e-014
lhumerus 2.18573 9.96599 81.2534
lradius 26.4308
lwrist -24.4634
lhand -12.4836 -32.3096
lfingers 7.12502
lthumb 13.5909 -2.77326
rfemur -57.1725 -4.32744 30.7213
rtibia 72.5759
rfoot -29.2727 -22.1356
rtoes 7.82846
lfemur -54.8032 12.1361 -21.5915
ltibia 73.0209
lfoot -34.2452 13.0053
ltoes -54.7402
146
root 9.20824 13.6024 21.6765 200.326 16.601 -178.334
lowerback 20.2324 0.926479 -0.247927
upperback -1.66987 1.06667 -1.27777
thorax -13.2869 0.473563 -1.6342
lowerneck -9.0259 -5.26025 -8.03661
upperneck -16.6136 -3.30714 13.8588
head -2.95486 -0.807058 5.59144
rclavicle -9.34288e-015 7.15625e-015
rhumerus -44.195 19.7543 -76.5649
rradius 49.1022
rwrist -0.0940108
rhand -6.21227 -53.1047
rfingers 7.12502
rthumb 19.6283 -82.1338
lclavicle -9.34288e-015 7.15625e-015
lhumerus 3.61262 7.12288 82.3469
lradius 27.6634
lwrist -24.3832
lhand -10.2523 -31.8266
lfingers 7.12502
lthumb 15.7406 -2.44674
rfemur -56.7996 -3.38439 30.3233
rtibia 72.5808
rfoot -29.1078 -21.7799
rtoes 7.54016
lfemur -54.3985 12.4429 -21.4909
ltibia 73.6167
lfoot -34.055 13.3593
ltoes -54.2144
147
root 9.19082 13.6049 21.625 200.215 18.3842 -177.981
lowerback 20.6641 0.966238 -1.15554
upperback -2.26781 0.948355 -0.560455
thorax -14.2725 0.508044 -0.287207
lowerneck -8.14525 -5.42526 -9.15923
upperneck -16.8129 -3.59634 14.2716
head -3.07881 -0.986483 5.932
rclavicle 5.10877e-014 -1.23246e-014
rhumerus -47.5442 20.7766 -76.9879
rradius 50.8623
rwrist -0.532608
rhand -6.06485 -53.1771
rfingers 7.12502
rthumb 19.77 -82.1917
lclavicle 5.10877e-014 -1.23246e-014
lhumerus 4.65376 3.08185 83.6977
lradius 27.8519
lwrist -21.8531
lhand -10.5255 -32.7077
lfingers 7.12502
lthumb 15.4775 -3.30731
rfemur -56.2021 -2.10968 30.0161
rtibia 72.3299
rfoot -28.8275 -21.8179
rtoes 4.24493
lfemur -53.7725 13.0477 -21.263
ltibia 74.1047
lfoot -33.8378 13.8597
ltoes -53.9778
148
root 9.17236 13.6218 21.5664 200.012 20.1556 -177.678
lowerback 19.3768 0.308287 -0.42779
upperback -1.66235 0.224807 -1.08502
thorax -12.7997 0.107185 -1.04046
lowerneck -8.25779 -5.76204 -8.83952
upperneck -17.405 -3.82476 15.2872
head -3.17229 -1.12002 6.21124
rclavicle 4.77083e-015 -8.74653e-015
rhumerus -48.6332 20.8778 -78.6988
rradius 52.4636
rwrist -0.67805
rhand -5.68744 -53.4466
rfingers 7.12502
rthumb 20.1328 -82.4234
lclavicle 4.77083e-015 -8.74653e-015
lhumerus 7.72858 -0.620121 82.6468
lradius 28.2205
lwrist -20.6498
lhand -11.7662 -33.3862
lfingers 7.12502
lthumb 14.2823 -3.89732
rfemur -55.3308 -0.950295 29.684
rtibia 71.8614
rfoot -28.7205 -21.8714
rtoes 1.71682
lfemur -52.9025 13.5048 -21.0468
ltibia 74.399
lfoot -33.4443 14.8094
ltoes -54.5483
149
root 9.15172 13.6367 21.5021 199.85 21.9066 -177.64
lowerback 18.9566 -0.128469 -0.62034
upperback -1.9665 -0.404571 -1.00075
thorax -12.9115 -0.172681 -0.647632
lowerneck -7.55736 -5.92437 -9.63278
upperneck -17.3332 -4.10847 16.0682
head -3.17131 -1.32027 6.60889
rclavicle 1.39149e-015 -2.3059e-014
rhumerus -51.7274 21.9999 -79.8644
rradius 55.0339
rwrist -1.01868
rhand -5.38714 -53.0393
rfingers 7.12502
rthumb 20.4214 -81.9855
lclavicle 1.39149e-015 -2.3059e-014
lhumerus 8.69315 -2.39748 82.9545
lradius 29.2526
lwrist -20.6292
lhand -11.0169 -34.6519
lfingers 7.12502
lthumb 15.0042 -5.2155
rfemur -54.6237 -0.0599469 29.1973
rtibia 71.2426
rfoot -28.5473 -21.7685
rtoes 0.511314
lfemur -52.0941 13.7561 -21.127
ltibia 74.478
lfoot -33.0672 15.6229
ltoes -54.7542
